<mxfile host="app.diagrams.net" modified="2023-11-13T07:21:09.930Z" agent="Mozilla/5.0 (X11; Linux x86_64; Chromium GOST) AppleWebKit/537.36 (KHTML, like Gecko) Chrome/110.0.0.0 Safari/537.36" version="22.1.0" etag="lE2pBxUH3RCFdwdM6s2L" type="github">
  <diagram name="Страница — 1" id="L2aB8myMuUCp3FU65n14">
    <mxGraphModel>
      <root>
        <mxCell id="0" />
        <mxCell id="1" parent="0" />
      </root>
    </mxGraphModel>
  </diagram>
</mxfile>
